<svg width="100" height="88" viewBox="0 0 100 88" fill="none" xmlns="http://www.w3.org/2000/svg">
<g clip-path="url(#clip0_40_8)">
<path d="M72.9308 50.4H39.811C38.4477 50.4 37.3425 49.2947 37.3425 47.9315V32.2973C37.3425 30.9341 38.4477 29.8288 39.811 29.8288H60.5883C61.9515 29.8288 63.0568 30.9341 63.0568 32.2973V38.4685C63.0568 39.8318 61.9515 40.937 60.5883 40.937C59.2251 40.937 58.1198 39.8318 58.1198 38.4685V34.7658H42.2795V45.463H70.4623V29.3289L50.1848 6.19665L29.937 28.9185V47.9315C29.937 49.2947 28.8317 50.4 27.4685 50.4C26.1053 50.4 25 49.2947 25 47.9315V27.9787C25 27.3733 25.2228 26.7882 25.6258 26.3365L48.3569 0.827051C48.8278 0.298793 49.4776 -0.0171747 50.2095 0.000721861C50.9174 0.00380748 51.5894 0.309901 52.0559 0.841862L74.7871 26.7734C75.1821 27.2233 75.3993 27.8022 75.3993 28.4008V47.9315C75.3993 49.2947 74.294 50.4 72.9308 50.4Z" fill="#111111"/>
<path d="M2.9356 84.9547C2.95871 85.6712 2.95871 86.3877 2.98183 87.1043C2.98183 87.4279 3.00494 87.4741 3.32853 87.4741H5.40878C5.84795 87.4741 5.75549 86.7344 5.73238 86.3415L5.80172 73.3977C5.80172 73.051 5.91729 72.9355 6.37957 72.9355H8.41359C8.89898 72.9355 8.78341 72.1034 8.78341 71.5255C8.78341 71.017 8.96832 70.1387 8.41359 70.1387C8.02065 70.1387 4.25309 70.1387 2.70446 70.1618C1.9417 70.1618 1.31763 70.1387 0.55487 70.1387C-0.0229771 70.1387 0.000136768 70.601 0.000136768 71.618C0.000136768 72.2652 -0.022977 72.9123 0.531756 72.9123C0.85535 72.9123 2.17284 72.9123 2.54266 72.9355C2.7738 72.9355 2.9356 73.0048 2.98183 73.2591C2.98183 73.3284 3.00494 73.3977 3.00494 73.4671C3.00494 75.1313 2.88937 82.8744 2.9356 84.9547V84.9547ZM12.8561 82.7357H12.833C12.833 83.3136 12.8098 83.9146 12.833 84.5155C12.8561 85.2552 12.9023 85.9948 12.9485 86.7344C12.9485 86.9887 13.0179 87.058 13.249 87.1043C13.7344 87.2198 14.1967 87.2429 14.6821 87.2429C15.9302 87.1967 17.1784 87.2892 18.4265 87.2429C18.935 87.2198 19.1662 87.2661 19.6747 87.1736C20.1369 87.0812 20.2987 86.8269 20.2987 86.1335C20.2525 85.6943 20.2756 85.5094 20.2756 84.9778C20.2756 84.215 19.744 83.9608 19.2817 83.9839C18.9581 84.007 17.4095 83.9608 16.7854 83.9608C15.7453 83.9839 15.9071 84.1226 15.9071 83.0362C15.9071 82.1579 15.9302 81.0253 15.9302 80.1239C15.9302 79.6385 15.9764 79.4767 16.4387 79.4767H19.328C19.7902 79.546 20.1138 79.2224 20.1138 78.737C20.1138 78.2517 20.1601 78.2285 20.1601 77.7431L20.0907 77.0497C20.0445 76.6568 19.9058 76.5181 19.5129 76.5181C19.2586 76.5181 19.0044 76.5412 18.7501 76.5643C17.7562 76.6337 17.2939 76.495 16.3232 76.5643C15.9996 76.5643 15.9533 76.5181 15.9302 76.2176C15.8378 75.3162 15.9302 74.3223 16.0227 73.4209C16.0458 73.051 16.1382 72.9817 16.485 72.9586L19.744 72.9355C20.1832 72.8892 20.3219 72.9123 20.2987 72.4732C20.2525 71.8029 20.3219 71.1095 20.2525 70.4392C20.2063 70.0693 20.0907 70 19.6747 70C18.9812 70.0231 18.8195 70.0231 18.126 70.0693C17.4326 70.0925 14.659 70.0925 13.9887 70.0925C13.0179 70.0925 12.9485 70.0231 12.9254 71.2019C12.8792 72.1265 12.9023 73.0741 12.9023 74.0218C12.9023 75.6398 12.8098 81.4414 12.8561 82.7357V82.7357ZM36.8806 87.4972C37.2273 87.4972 38.4986 87.5203 38.7529 87.4741C38.9147 87.4279 39.0071 87.0118 39.0533 86.8731C39.192 86.434 39.2845 85.9717 39.4 85.5325C39.6543 84.3768 42.2199 74.669 43.1214 71.0401C43.1676 70.8783 43.2138 70.6934 43.1676 70.5316C43.0983 70.1849 42.8902 70.1387 42.6129 70.1387C42.0813 70.1618 41.5496 70.1387 41.018 70.1387C40.4171 70.1387 40.1859 70.208 40.001 70.8783C39.0996 73.9756 38.4986 77.6738 37.6665 80.8173L37.5278 81.1871C37.5278 81.2102 37.4354 81.1871 37.4354 81.1871C37.3891 81.0715 37.3198 80.9791 37.2967 80.8635C36.4646 77.5582 35.1009 71.017 34.8697 70.3929C34.731 70.0231 34.3843 70.1387 34.0607 70.1387C33.4136 70.1387 32.8126 70.1618 32.1885 70.1618C31.9574 70.1849 31.7956 70.2774 31.8187 70.5085C31.8187 70.6934 32.0729 71.7104 32.1192 71.9878L32.3734 72.9586C32.5352 73.6982 32.7664 74.6228 32.9282 75.3393C33.8065 79.0144 34.7542 82.6895 35.7943 86.3184C35.8867 86.642 35.9561 87.1967 36.1872 87.3816C36.3721 87.5434 36.6726 87.4741 36.8806 87.4972V87.4972ZM47.2403 82.7357H47.2172C47.2172 83.3136 47.194 83.9146 47.2172 84.5155C47.2403 85.2552 47.2865 85.9948 47.3327 86.7344C47.3327 86.9887 47.4021 87.058 47.6332 87.1043C48.1186 87.2198 48.5809 87.2429 49.0663 87.2429C50.3144 87.1967 51.5626 87.2892 52.8107 87.2429C53.3192 87.2198 53.5504 87.2661 54.0589 87.1736C54.5211 87.0812 54.6829 86.8269 54.6829 86.1335C54.6367 85.6943 54.6598 85.5094 54.6598 84.9778C54.6598 84.215 54.1282 83.9608 53.6659 83.9839C53.3423 84.007 51.7937 83.9608 51.1696 83.9608C50.1295 83.9839 50.2913 84.1226 50.2913 83.0362C50.2913 82.1579 50.3144 81.0253 50.3144 80.1239C50.3144 79.6385 50.3606 79.4767 50.8229 79.4767H53.7122C54.1744 79.546 54.498 79.2224 54.498 78.737C54.498 78.2517 54.5443 78.2285 54.5443 77.7431L54.4749 77.0497C54.4287 76.6568 54.29 76.5181 53.8971 76.5181C53.6428 76.5181 53.3886 76.5412 53.1343 76.5643C52.1404 76.6337 51.6781 76.495 50.7074 76.5643C50.3838 76.5643 50.3375 76.5181 50.3144 76.2176C50.222 75.3162 50.3144 74.3223 50.4069 73.4209C50.43 73.051 50.5224 72.9817 50.8691 72.9586L54.1282 72.9355C54.5674 72.8892 54.7061 72.9123 54.6829 72.4732C54.6367 71.8029 54.7061 71.1095 54.6367 70.4392C54.5905 70.0693 54.4749 70 54.0589 70C53.3654 70.0231 53.2037 70.0231 52.5102 70.0693C51.8168 70.0925 49.0432 70.0925 48.3728 70.0925C47.4021 70.0925 47.3327 70.0231 47.3096 71.2019C47.2634 72.1265 47.2865 73.0741 47.2865 74.0218C47.2865 75.6398 47.194 81.4414 47.2403 82.7357V82.7357ZM68.5559 70.6703C68.6252 70.9939 68.579 86.3877 68.579 86.7807C68.579 87.4741 68.3247 87.451 67.8625 87.451C67.1691 87.451 66.1983 87.5665 65.9902 87.3354C65.8053 87.1736 62.3845 78.922 61.8991 77.8818C61.8529 77.7894 61.7373 77.5582 61.6448 77.6045C61.5293 77.6507 61.5755 77.8125 61.5755 77.9049C61.5524 78.7139 61.6911 85.6943 61.6911 86.8038C61.6911 87.3585 61.6679 87.451 61.2057 87.451H60.05C59.7495 87.451 59.3797 87.4279 59.0792 87.4741C58.8481 87.4741 58.7325 87.4047 58.7094 87.1736V85.3476C58.7556 83.406 58.7094 71.8953 58.7094 71.0401C58.7094 70.3005 58.9174 70.1618 59.657 70.1618C60.1655 70.1387 60.6741 70.1387 61.1826 70.1387C61.3444 70.1387 61.4368 70.1618 61.5293 70.3698C62.1533 71.826 64.8114 78.5059 65.2275 79.3149C65.2968 79.4767 65.5511 80.1239 65.6898 80.1932H65.7129C65.8053 80.1008 65.7822 79.6385 65.7822 79.4998C65.7822 79.1531 65.5973 71.0401 65.5973 70.8783C65.5973 70.6472 65.528 70.4392 65.6435 70.2774C65.7129 70.1849 66.0134 70.1618 66.1289 70.1387C66.7761 70.0925 67.5389 70.1618 68.1861 70.1387C68.5097 70.1387 68.4865 70.3698 68.5559 70.6703V70.6703ZM82.3826 83.2211C82.5213 82.9207 82.6369 82.6202 82.7524 82.3197C83.0067 81.5801 83.0529 80.8173 83.1223 80.0545C83.2609 78.4366 83.2147 76.7955 82.7987 75.2237C82.2901 73.2128 80.9958 71.3637 79.0542 70.5085C78.1759 70.1156 77.182 70.0693 76.2343 70.0925C75.2404 70.0925 74.2234 70.0462 73.2295 70.1387C72.9521 70.1618 72.8135 70.3005 72.7672 70.5547C72.721 70.8321 72.6748 71.1095 72.6748 71.3637C72.721 72.7737 72.6748 76.9573 72.721 77.6507C72.7441 78.2748 72.6748 79.0375 72.6748 79.6616C72.6979 81.2102 72.6748 82.782 72.6748 84.3306C72.6748 84.9778 72.6517 85.6019 72.6517 86.2491C72.6517 86.9425 72.3974 87.2429 74.2927 87.2429C75.9801 87.2429 77.7367 87.1043 79.3316 86.5033C80.8109 85.9717 81.7354 84.608 82.3826 83.2211V83.2211ZM75.6565 80.8173V78.0436C75.6565 76.287 75.7027 75.1544 75.6334 73.6751V73.3977C75.6565 72.9123 75.7258 72.8892 76.2343 72.8892C76.9046 72.8661 77.39 73.0279 77.9679 73.2591C78.5457 73.4902 78.8693 73.9987 79.1698 74.4841C79.7476 75.4318 79.9788 76.4719 80.025 77.5582C80.0481 78.1823 80.0712 78.8064 80.0712 79.4305C80.0712 82.389 78.3377 84.4462 76.8122 84.4462C75.7951 84.4462 75.6334 84.5155 75.6334 83.8452C75.6334 83.1518 75.6796 82.4584 75.6796 81.765C75.6565 81.4645 75.6565 81.1409 75.6565 80.8173V80.8173ZM99.399 74.3916C99.8844 75.8247 100 77.3733 100 78.8988C100 80.1701 99.7689 81.3951 99.4453 82.6202C99.0292 84.0763 98.3358 85.3938 97.0877 86.2491C96.1631 86.9194 95.1923 87.3585 94.0597 87.4741C93.8979 87.4741 93.7593 87.4972 93.5975 87.4972C93.4588 87.4972 93.3201 87.4741 93.1583 87.4741C92.0257 87.3585 91.0549 86.9194 90.1073 86.2491C88.8822 85.3938 88.1657 84.0763 87.7728 82.6202C87.4261 81.3951 87.218 80.1701 87.218 78.8988C87.218 77.3733 87.3336 75.8247 87.819 74.3916C88.6742 71.9185 91.0318 70.1618 93.5975 70.1156C96.1631 70.1618 98.5207 71.9185 99.399 74.3916V74.3916ZM97.157 80.5862C97.3881 79.1762 97.2957 77.7431 97.0183 76.3332C96.7409 75.0619 96.1862 73.8138 95.123 73.051C94.9381 72.9123 94.73 72.7968 94.522 72.7274C94.2215 72.5888 93.8979 72.5425 93.5975 72.5425C93.297 72.5425 92.9965 72.5888 92.696 72.7274C92.4649 72.7968 92.28 72.9123 92.0951 73.051C91.0087 73.8138 90.454 75.0619 90.1997 76.3332C89.9223 77.7431 89.8299 79.1762 90.061 80.5862C90.2922 81.8574 90.7545 83.5678 91.9564 84.215C92.4649 84.4924 93.0196 84.6773 93.5975 84.7004C94.1753 84.6773 94.7532 84.4924 95.2617 84.215C96.4636 83.5678 96.9259 81.8574 97.157 80.5862Z" fill="#111111"/>
</g>
<defs>
<clipPath id="clip0_40_8">
<rect width="100" height="87.503" fill="white"/>
</clipPath>
</defs>
</svg>
